<svg width="800" height="800" viewBox="0 0 800 800" fill="none" xmlns="http://www.w3.org/2000/svg">
<rect width="800" height="800" rx="100" fill="#FF0000"/>
<path d="M619.908 179.99C625.822 185.871 625.836 195.436 619.94 201.334L598.077 223.201C580.153 241.128 580.153 270.191 598.077 288.118L598.75 288.791C610.5 300.543 610.5 319.547 598.75 331.174V331.174C585.662 344.265 582.407 363.992 587.979 381.645C595.779 406.36 600 432.675 600 459.949C600 603.602 483.625 720 340 720C196.375 720 80 603.727 80 460.074C80 316.421 196.375 200.023 340 200.023C367.267 200.023 393.576 204.244 418.284 212.046C435.936 217.619 455.663 214.364 468.75 201.274V201.274C480.5 189.521 499.5 189.521 511.125 201.274L511.702 201.851C529.677 219.829 558.823 219.829 576.798 201.851L598.623 180.022C604.497 174.147 614.017 174.133 619.908 179.99V179.99ZM705 155.015H675C666.75 155.015 660 161.766 660 170.018C660 178.269 666.75 185.02 675 185.02H705C713.25 185.02 720 178.269 720 170.018C720 161.766 713.25 155.015 705 155.015ZM630 80C621.75 80 615 86.7513 615 95.0029V125.009C615 133.26 621.75 140.012 630 140.012C638.25 140.012 645 133.26 645 125.009V95.0029C645 86.7513 638.25 80 630 80ZM672.375 148.763L693.625 127.509C699.5 121.633 699.5 112.131 693.625 106.255C687.75 100.379 678.25 100.379 672.375 106.255L651.125 127.509C645.25 133.385 645.25 142.887 651.125 148.763C657.125 154.64 666.625 154.64 672.375 148.763ZM587.625 148.763C593.5 154.64 603 154.64 608.875 148.763C614.75 142.887 614.75 133.385 608.875 127.509L587.625 106.255C581.75 100.379 572.25 100.379 566.375 106.255C560.5 112.131 560.5 121.633 566.375 127.509L587.625 148.763ZM672.375 191.272C666.5 185.396 657 185.396 651.125 191.272C645.25 197.148 645.25 206.65 651.125 212.526L672.375 233.78C678.25 239.656 687.75 239.656 693.625 233.78C699.5 227.904 699.5 218.402 693.625 212.526L672.375 191.272ZM220 420.066C220 375.933 255.875 340.051 300 340.051C311 340.051 320 331.049 320 320.047C320 309.045 311 300.043 300 300.043C233.875 300.043 180 353.928 180 420.066C180 431.069 189 440.07 200 440.07C211 440.07 220 431.069 220 420.066Z" fill="black"/>
</svg>
